<svg viewBox="0 0 250 250" fill="none" xmlns="http://www.w3.org/2000/svg">
<path d="M210 64.2599C211.602 60.7266 212.5 56.863 212.5 52.8344C212.5 35.333 195.703 21.1338 175 21.1338C167.305 21.1338 160.117 23.1151 154.18 26.4832C143.359 10.6329 123.164 0 100 0C65.4687 0 37.5 23.6434 37.5 52.8344C37.5 53.726 37.5391 54.6176 37.5781 55.5092C15.7031 62.0144 0 79.6479 0 100.385C0 126.637 25.1953 147.936 56.25 147.936H200C227.617 147.936 250 129.015 250 105.669C250 85.2285 232.812 68.1564 210 64.2599Z" fill="black"/>
<path d="M92.963 166.584H86.4847L88.8762 160.028C89.1007 159.261 88.4552 158.503 87.5738 158.503H79.49C78.8163 158.503 78.2437 158.953 78.1539 159.554L76.3575 171.675C76.2508 172.402 76.8796 173.048 77.6936 173.048H84.3571L81.7692 182.871C81.5671 183.639 82.2183 184.361 83.0772 184.361C83.5487 184.361 83.9978 184.139 84.2448 183.755L94.1251 168.402C94.6472 167.599 94.0016 166.584 92.963 166.584Z" fill="black"/>
<path d="M66.0169 205.702H59.5386L61.9301 199.147C62.1546 198.379 61.5091 197.621 60.6277 197.621H52.5439C51.8702 197.621 51.2976 198.071 51.2078 198.672L49.4114 210.793C49.3047 211.52 49.9335 212.166 50.7475 212.166H57.411L54.8231 221.989C54.621 222.757 55.2722 223.479 56.1311 223.479C56.6026 223.479 57.0517 223.257 57.2987 222.873L67.179 207.52C67.701 206.717 67.0555 205.702 66.0169 205.702Z" fill="black"/>
<path d="M157.334 222.277H150.856L153.247 215.722C153.472 214.954 152.826 214.197 151.945 214.197H143.861C143.188 214.197 142.615 214.646 142.525 215.247L140.729 227.368C140.622 228.095 141.251 228.742 142.065 228.742H148.728L146.14 238.565C145.938 239.333 146.59 240.055 147.448 240.055C147.92 240.055 148.369 239.832 148.616 239.449L158.496 224.096C159.018 223.293 158.373 222.277 157.334 222.277Z" fill="black"/>
<path d="M101.197 232.223H94.7183L97.1097 225.667C97.3343 224.9 96.6887 224.142 95.8073 224.142H87.7235C87.0498 224.142 86.4772 224.592 86.3874 225.193L84.591 237.314C84.4844 238.041 85.1131 238.687 85.9271 238.687H92.5906L90.0027 248.51C89.8006 249.278 90.4518 250 91.3107 250C91.7823 250 92.2314 249.778 92.4784 249.394L102.359 234.041C102.881 233.238 102.235 232.223 101.197 232.223Z" fill="black"/>
<path d="M170.807 166.584H164.329L166.721 160.028C166.945 159.261 166.299 158.503 165.418 158.503H157.334C156.661 158.503 156.088 158.953 155.998 159.554L154.202 171.675C154.095 172.402 154.724 173.048 155.538 173.048H162.201L159.613 182.871C159.411 183.639 160.063 184.361 160.921 184.361C161.393 184.361 161.842 184.139 162.089 183.755L171.969 168.402C172.491 167.599 171.846 166.584 170.807 166.584Z" fill="black"/>
<path d="M132.634 192.442H126.155L128.547 185.886C128.771 185.119 128.126 184.361 127.244 184.361H119.161C118.487 184.361 117.914 184.811 117.825 185.411L116.028 197.532C115.921 198.26 116.55 198.906 117.364 198.906H124.028L121.44 208.729C121.238 209.497 121.889 210.219 122.748 210.219C123.219 210.219 123.668 209.997 123.915 209.613L133.796 194.26C134.318 193.457 133.672 192.442 132.634 192.442Z" fill="black"/>
</svg>
